<?xml version="1.0" encoding="UTF-8"?>
<svg width="36px" height="36px" viewBox="0 0 36 36" version="1.1" xmlns="http://www.w3.org/2000/svg" xmlns:xlink="http://www.w3.org/1999/xlink">
    <title>Group 6</title>
    <defs>
        <polygon id="path-1" points="0 0 20.2559586 0 20.2559586 20.2559586 0 20.2559586"></polygon>
    </defs>
    <g id="Personal-Pages-+-PH" stroke="none" stroke-width="1" fill="none" fill-rule="evenodd">
        <g id="PERSONAL-PAGE" transform="translate(-224.000000, -1040.000000)">
            <g id="Group-6" transform="translate(224.000000, 1040.000000)">
                <rect id="Rectangle" stroke="#FFFFFF" opacity="0.400000006" x="0.5" y="0.5" width="35" height="35" rx="4"></rect>
                <g id="Group-8" transform="translate(18.000000, 18.000000) scale(-1, 1) translate(-18.000000, -18.000000) translate(7.872021, 7.872021)">
                    <g id="Group-3">
                        <mask id="mask-2" fill="white">
                            <use xlink:href="#path-1"></use>
                        </mask>
                        <g id="Clip-2"></g>
                        <path d="M10.1279793,0 C7.37736515,0 7.03246295,0.0116588924 5.95224647,0.0609478648 C4.87420096,0.110116228 4.13800222,0.281341133 3.49374791,0.531685694 C2.82774373,0.790513105 2.2629307,1.13682241 1.69988661,1.6998665 C1.13684251,2.2629508 0.790533206,2.82776383 0.531705796,3.49376801 C0.281321032,4.13798211 0.11013633,4.87422106 0.0609277633,5.95222637 C0.0116387908,7.03248305 -2.01015385e-05,7.37738525 -2.01015385e-05,10.1279994 C-2.01015385e-05,12.8785733 0.0116387908,13.2234755 0.0609277633,14.3037322 C0.11013633,15.3817375 0.281321032,16.1179764 0.531705796,16.7621905 C0.790533206,17.4281947 1.13684251,17.9930078 1.69988661,18.5560921 C2.2629307,19.1191361 2.82774373,19.4654455 3.49374791,19.7242729 C4.13800222,19.9746174 4.87420096,20.1458423 5.95224647,20.1950107 C7.03246295,20.2442997 7.37736515,20.2559586 10.1279793,20.2559586 C12.8785934,20.2559586 13.2234956,20.2442997 14.3037121,20.1950107 C15.3817576,20.1458423 16.1179563,19.9746174 16.7622107,19.7242729 C17.4282148,19.4654455 17.9930279,19.1191361 18.556072,18.5560921 C19.119116,17.9930078 19.4654254,17.4281947 19.7242528,16.7621905 C19.9746375,16.1179764 20.1458222,15.3817375 20.1950308,14.3037322 C20.2443198,13.2234755 20.2559787,12.8785733 20.2559787,10.1279994 C20.2559787,7.37738525 20.2443198,7.03248305 20.1950308,5.95222637 C20.1458222,4.87422106 19.9746375,4.13798211 19.7242528,3.49376801 C19.4654254,2.82776383 19.119116,2.2629508 18.556072,1.6998665 C17.9930279,1.13682241 17.4282148,0.790513105 16.7622107,0.531685694 C16.1179563,0.281341133 15.3817576,0.110116228 14.3037121,0.0609478648 C13.2234956,0.0116588924 12.8785934,0 10.1279793,0 M10.1279793,1.82485787 C12.8322795,1.82485787 13.1525774,1.83519006 14.2205319,1.88391619 C15.2079999,1.92894364 15.7443089,2.09393707 16.1011917,2.23263768 C16.5738994,2.41636574 16.9112837,2.63583434 17.265714,2.99026467 C17.6201041,3.34465479 17.8396129,3.68203902 18.023341,4.154787 C18.1620014,4.51166972 18.3269948,5.04793856 18.3720625,6.03540654 C18.4207886,7.10336108 18.4310806,7.4236992 18.4310806,10.1279994 C18.4310806,12.8322594 18.4207886,13.1525975 18.3720625,14.220552 C18.3269948,15.20802 18.1620014,15.7442888 18.023341,16.1011716 C17.8396129,16.5739195 17.6201041,16.9113038 17.265714,17.2656939 C16.9112837,17.6201242 16.5738994,17.8395928 16.1011917,18.0233209 C15.7443089,18.1620215 15.2079999,18.3270149 14.2205319,18.3720424 C13.1527382,18.4207685 12.8324403,18.4311007 10.1279793,18.4311007 C7.42351828,18.4311007 7.10322037,18.4207685 6.03542664,18.3720424 C5.04795866,18.3270149 4.51164961,18.1620215 4.1547669,18.0233209 C3.68205912,17.8395928 3.3446749,17.6201242 2.99024457,17.2656939 C2.63585444,16.9113038 2.41634564,16.5739195 2.23261758,16.1011716 C2.09395717,15.7442888 1.92896374,15.20802 1.88389609,14.220552 C1.83516996,13.1525975 1.82487797,12.8322594 1.82487797,10.1279994 C1.82487797,7.4236992 1.83516996,7.10336108 1.88389609,6.03540654 C1.92896374,5.04793856 2.09395717,4.51166972 2.23261758,4.154787 C2.41634564,3.68203902 2.63585444,3.34465479 2.99024457,2.99026467 C3.3446749,2.63583434 3.68205912,2.41636574 4.1547669,2.23263768 C4.51164961,2.09393707 5.04795866,1.92894364 6.03538644,1.88391619 C7.10338118,1.83519006 7.4236791,1.82485787 10.1279793,1.82485787" id="Fill-1" fill="#FFFFFF" mask="url(#mask-2)"></path>
                    </g>
                    <path d="M10.1279793,13.5039684 C8.26348117,13.5039684 6.75196608,11.9924935 6.75196608,10.1279954 C6.75196608,8.26345705 8.26348117,6.75198217 10.1279793,6.75198217 C11.9924774,6.75198217 13.5039523,8.26345705 13.5039523,10.1279954 C13.5039523,11.9924935 11.9924774,13.5039684 10.1279793,13.5039684 M10.1279793,4.92712429 C7.25563023,4.92712429 4.92710821,7.25560611 4.92710821,10.1279954 C4.92710821,13.0003444 7.25563023,15.3288262 10.1279793,15.3288262 C13.0003283,15.3288262 15.3288503,13.0003444 15.3288503,10.1279954 C15.3288503,7.25560611 13.0003283,4.92712429 10.1279793,4.92712429" id="Fill-4" fill="#FFFFFF"></path>
                    <path d="M16.7496794,4.72163833 C16.7496794,5.3928689 16.2055307,5.93697735 15.5343403,5.93697735 C14.8631098,5.93697735 14.3189611,5.3928689 14.3189611,4.72163833 C14.3189611,4.05040775 14.8631098,3.50629931 15.5343403,3.50629931 C16.2055307,3.50629931 16.7496794,4.05040775 16.7496794,4.72163833" id="Fill-6" fill="#FFFFFF"></path>
                </g>
            </g>
        </g>
    </g>
</svg>