<?xml version="1.0" encoding="UTF-8"?>
<svg width="36px" height="36px" viewBox="0 0 36 36" version="1.1" xmlns="http://www.w3.org/2000/svg" xmlns:xlink="http://www.w3.org/1999/xlink">
    <title>Group 6</title>
    <g id="Personal-Pages-+-PH" stroke="none" stroke-width="1" fill="none" fill-rule="evenodd">
        <g id="RELAUNCH-HOMEPAGE-MOBILE-V2" transform="translate(-68.000000, -1290.000000)">
            <g id="Group-6" transform="translate(68.000000, 1290.000000)">
                <rect id="Rectangle" stroke="#FFFFFF" opacity="0.400000006" x="0.5" y="0.5" width="35" height="35" rx="4"></rect>
                <path d="M13.8595681,26 L10.2153084,26 L10.2153084,15.2043615 L13.8595681,15.2043615 L13.8595681,26 Z M12.0375524,13.7302158 L12.0138068,13.7302158 C10.7909101,13.7302158 10,12.9013039 10,11.8653327 C10,10.8059802 10.8151123,10 12.0617546,10 C13.3083969,10 14.0755614,10.8059802 14.099307,11.8653327 C14.099307,12.9013039 13.3083969,13.7302158 12.0375524,13.7302158 Z M27,26 L23.3561969,26 L23.3561969,20.2245953 C23.3561969,18.7731565 22.8285431,17.7832734 21.5099791,17.7832734 C20.503304,17.7832734 19.9037284,18.4509892 19.6402439,19.0955485 C19.5438917,19.326214 19.5203744,19.6486061 19.5203744,19.971223 L19.5203744,26 L15.8763431,26 C15.8763431,26 15.9240626,16.2171763 15.8763431,15.2043615 L19.5203744,15.2043615 L19.5203744,16.7329137 C20.0046471,15.9973022 20.8711319,14.9509892 22.8045691,14.9509892 C25.2021865,14.9509892 27,16.4939298 27,19.8098021 L27,26 Z" id="Shape" fill="#FFFFFF" fill-rule="nonzero"></path>
            </g>
        </g>
    </g>
</svg>